HIERARCHY
ROOT Hips
{
	OFFSET 0.00000 0.00000 0.00000
	CHANNELS 6 Xposition Yposition Zposition Yrotation Zrotation Xrotation 
	JOINT Lumbar
	{
		OFFSET 0 0 0
		CHANNELS 3 Zrotation Xrotation Yrotation
		JOINT Neck
		{
			OFFSET 0.00 0.2701 0.00
			CHANNELS 3 Zrotation Xrotation Yrotation
			End Site
			{
				OFFSET 0.00 0.1379 0.00
			}
		}
		JOINT RightShoulder
		{
			OFFSET 0.0119 0.2289 0.1181
			CHANNELS 3 Zrotation Xrotation Yrotation
			JOINT RightElbow
			{
				OFFSET 0.00 -0.1475 0.00
				CHANNELS 2 Zrotation Yrotation
				JOINT RightWrist
				{
					OFFSET 0.00 -0.1605 0.00
					CHANNELS 2 Zrotation Xrotation
					End Site
					{
						OFFSET 0.0040 -0.1068 0.0006
					}
				}
			}
		}
		JOINT LeftShoulder
		{
			OFFSET 0.0119 0.2289 -0.1181
			CHANNELS 3 Zrotation Xrotation Yrotation
			JOINT LeftElbow
			{
				OFFSET 0.00 -0.1475 0.00
				CHANNELS 2 Zrotation Yrotation
				JOINT LeftWrist
				{
					OFFSET 0.00 -0.1605 0.00
					CHANNELS 2 Zrotation Xrotation
					End Site
					{
						OFFSET 0.0040 -0.1068 -0.0006
					}
				}
			}
		}
	}
	JOINT RightHip
	{
		OFFSET 0.0316 -0.0424 0.0458
		CHANNELS 3 Zrotation Xrotation Yrotation
		JOINT RightKnee
		{
			OFFSET 0.00 -0.2438 0.00
			CHANNELS 1 Zrotation
			JOINT RightAnkle
			{
				OFFSET 0.00 -0.2449 0.00
				CHANNELS 3 Zrotation Xrotation Yrotation
				End Site
				{
					OFFSET 0.1237 -0.0542 0.0051
				}
			}
		}
	}
	JOINT LeftHip
	{
		OFFSET 0.0316 -0.0424 -0.0458
		CHANNELS 3 Zrotation Xrotation Yrotation
		JOINT LeftKnee
		{
			OFFSET 0.00 -0.2438 0.00
			CHANNELS 1 Zrotation
			JOINT LeftAnkle
			{
				OFFSET 0.00 -0.2449 0.00
				CHANNELS 3 Zrotation Xrotation Yrotation
				End Site
				{
					OFFSET 0.1237 -0.0542 -0.0051
				}
			}
		}
	}
}
MOTION
Frames: 33
Frame Time: 0.02
0.0001 6e-05 3e-05 20.69397 -35.45264 -2.86118 57.55027 -0.14575 0.52661 -14.34818 -1.34213 -0.33763 169.88002 -81.65587 -23.55497 18.2943 92.53501 -1.30095 -4.95884 169.88117 80.22403 35.36901 15.32934 -94.62521 -4.70757 5.91221 49.97126 -4.11181 -10.21608 -18.94611 -8.62869 -5.4302 -3.65728 55.01911 3.11845 -0.96927 -24.14358 -9.42497 5.39316 3.76094
6e-05 5e-05 5e-05 20.7059 -35.434 -2.85965 57.54025 -0.14925 0.54059 -14.35151 -1.35065 -0.33738 169.88021 -81.6652 -23.53391 18.27516 92.54468 -1.31824 -4.96106 169.88152 80.26441 35.41456 15.26454 -94.63169 -4.72342 5.92429 49.95919 -4.08746 -10.05742 -18.94937 -8.64069 -5.43804 -3.66312 55.00391 3.15038 -0.80829 -24.14434 -9.40952 5.39511 3.75271
2e-05 4e-05 6e-05 20.71782 -35.41539 -2.85813 57.53026 -0.15275 0.55463 -14.35485 -1.35915 -0.33713 169.88041 -81.67456 -23.51281 18.25612 92.55432 -1.33549 -4.96329 169.8803 80.30497 35.45956 15.19914 -94.63794 -4.7391 5.93609 49.94712 -4.06314 -9.89903 -18.95261 -8.65269 -5.44588 -3.66895 54.98872 3.18234 -0.64726 -24.14511 -9.39407 5.39702 3.74447
-1e-05 3e-05 7e-05 20.72972 -35.39681 -2.85661 57.52026 -0.15625 0.56858 -14.35818 -1.36765 -0.33687 169.8806 -81.68386 -23.49181 18.23704 92.56396 -1.35274 -4.96549 169.88191 80.3451 35.50564 15.13442 -94.64455 -4.75493 5.94819 49.93508 -4.03886 -9.74082 -18.95586 -8.66466 -5.4537 -3.67478 54.97356 3.2142 -0.48669 -24.14587 -9.37866 5.39896 3.73626
-5e-05 1e-05 8e-05 20.74163 -35.37821 -2.85507 57.51025 -0.15974 0.58246 -14.36149 -1.37618 -0.33662 169.88079 -81.6931 -23.47088 18.21786 92.57364 -1.37 -4.96768 169.88149 80.38543 35.55036 15.07058 -94.65096 -4.77087 5.96041 49.92303 -4.01457 -9.58244 -18.95911 -8.67661 -5.46151 -3.6806 54.95839 3.24598 -0.32635 -24.14664 -9.36329 5.40096 3.72806
-8e-05 0 9e-05 20.75356 -35.35957 -2.85359 57.50031 -0.16325 0.59683 -14.3649 -1.3846 -0.33637 169.88098 -81.70274 -23.44939 18.19912 92.58316 -1.38723 -4.97001 169.87628 80.42672 35.59478 15.00189 -94.65659 -4.78593 5.97116 49.91094 -3.9902 -9.42405 -18.96234 -8.68872 -5.4694 -3.68647 54.94316 3.27831 -0.16389 -24.1474 -9.34766 5.40266 3.71975
-0.00012 -1e-05 0.0001 20.76544 -35.34104 -2.85198 57.49023 -0.16672 0.61014 -14.36811 -1.39324 -0.33611 169.88118 -81.71154 -23.4291 18.17946 92.593 -1.40455 -4.97203 169.89166 80.46477 35.64517 14.94311 -94.66512 -4.80303 5.98555 49.89896 -3.96601 -9.26582 -18.96561 -8.70049 -5.47712 -3.69223 54.92808 3.30951 -0.00589 -24.14816 -9.33257 5.40496 3.71167
-0.00016 -2e-05 0.00011 20.77737 -35.3224 -2.85051 57.48029 -0.17023 0.62453 -14.37151 -1.40168 -0.33586 169.88134 -81.72115 -23.40761 18.16076 92.60256 -1.42168 -4.97435 169.86809 80.5081 35.68019 14.87503 -94.66852 -4.81777 5.99533 49.88686 -3.94166 -9.10752 -18.96884 -8.71256 -5.485 -3.69809 54.91286 3.34176 0.15623 -24.14893 -9.31699 5.40671 3.70338
-0.00019 -3e-05 0.00012 20.78934 -35.30364 -2.84917 57.47046 -0.17378 0.63985 -14.37511 -1.40987 -0.33562 169.88159 -81.73163 -23.38501 18.1428 92.61172 -1.43901 -4.97701 169.87588 80.54888 35.73554 14.79608 -94.67537 -4.83151 6.00439 49.87465 -3.91707 -8.94871 -18.97204 -8.72506 -5.49309 -3.70407 54.89747 3.37528 0.32353 -24.14971 -9.30075 5.40778 3.69482
-0.00023 -4e-05 0.00013 20.80103 -35.28562 -2.84695 57.4598 -0.17709 0.64865 -14.37746 -1.41948 -0.33533 169.88172 -81.73674 -23.36987 18.11925 92.62301 -1.45652 -4.97761 169.94059 80.57726 35.79149 14.78111 -94.69158 -4.85665 6.03236 49.86317 -3.89374 -8.79154 -18.97545 -8.73531 -5.50002 -3.70938 54.88307 3.40145 0.46148 -24.15042 -9.28814 5.41276 3.68778
-0.00027 -5e-05 0.00014 20.81333 -35.26601 -2.84666 57.45102 -0.18089 0.67197 -14.3825 -1.4261 -0.33514 169.88188 -81.7534 -23.33831 18.10838 92.62991 -1.47278 -4.98264 169.73372 80.64906 35.77112 14.63034 -94.66942 -4.85414 6.01104 49.85011 -3.86782 -8.63176 -18.97842 -8.75016 -5.50934 -3.71608 54.86654 3.44314 0.66099 -24.15128 -9.26795 5.40949 3.67754
-0.00029 -7e-05 0.00017 20.82735 -35.24216 -2.85106 57.44634 -0.18631 0.72931 -14.3946 -1.4245 -0.33521 169.88215 -81.80047 -23.26724 18.12515 92.62347 -1.49278 -4.99908 170.06406 80.69378 36.18993 14.11645 -94.70037 -4.80735 5.93459 49.83283 -3.83408 -8.45751 -18.98017 -8.77877 -5.52576 -3.72699 54.84434 3.52782 1.03402 -24.15246 -9.22616 5.38337 3.6584
-0.00031 -9e-05 0.0002 20.84202 -35.21666 -2.85753 57.44378 -0.19216 0.8024 -14.40955 -1.41996 -0.33537 169.88132 -81.85958 -23.17891 18.15581 92.6126 -1.51028 -5.02012 169.91722 80.80501 36.43634 13.46911 -94.6681 -4.72899 5.79697 49.81389 -3.79786 -8.28193 -18.98147 -8.81179 -5.54449 -3.73923 54.81994 3.62798 1.46774 -24.15379 -9.17694 5.34903 3.6361
-0.00034 -0.00011 0.00024 20.85633 -35.19184 -2.86341 57.44083 -0.19767 0.87198 -14.42325 -1.41673 -0.33547 169.88239 -81.91373 -23.09453 18.18498 92.60492 -1.5241 -5.03949 169.10861 80.98671 36.3068 12.87063 -94.55533 -4.64182 5.63096 49.79564 -3.76325 -8.11181 -18.98298 -8.84201 -5.56177 -3.75061 54.79643 3.72088 1.8711 -24.15512 -9.13159 5.31859 3.61532
-0.00037 -0.00013 0.00027 20.8708 -35.16739 -2.86769 57.43525 -0.20389 0.92586 -14.43631 -1.4134 -0.33563 169.88214 -81.96485 -23.0255 18.19449 92.59334 -1.55785 -5.05697 171.87102 80.7608 37.99397 12.30237 -94.88426 -4.64388 5.68894 49.77777 -3.72664 -7.92143 -18.98447 -8.87552 -5.5807 -3.76306 54.77342 3.81497 2.28757 -24.1562 -9.08397 5.28737 3.5941
-0.00039 -0.00015 0.00031 20.88523 -35.1417 -2.87593 57.43592 -0.20861 1.01662 -14.45196 -1.40986 -0.33571 169.87864 -82.02623 -22.92176 18.24741 92.5875 -1.55001 -5.07963 167.2546 81.37786 35.98279 11.66372 -94.30243 -4.46324 5.28229 49.75858 -3.69352 -7.7726 -18.98587 -8.90333 -5.59678 -3.77363 54.74879 3.90997 2.68955 -24.15781 -9.03952 5.25591 3.57312
-0.00039 -0.00019 0.00037 20.89821 -35.11348 -2.89364 57.45097 -0.21019 1.20135 -14.46921 -1.40423 -0.33549 169.88891 -82.10722 -22.73254 18.41959 92.60531 -1.42534 -5.11517 140.8871 84.49352 22.70658 10.65993 -91.01137 -3.69298 3.46565 49.73724 -3.67147 -7.74192 -18.98755 -8.9133 -5.60394 -3.77835 54.72069 4.00611 3.05048 -24.16092 -9.00394 5.22499 3.55292
-0.00039 -0.00024 0.00044 20.91141 -35.08397 -2.91549 57.4727 -0.21008 1.4233 -14.48987 -1.39895 -0.3352 169.87342 -82.20175 -22.52015 18.63149 92.62462 -1.26068 -5.15654 107.37974 88.42038 5.91191 9.63002 -86.84379 -2.75606 1.20905 49.71442 -3.65284 -7.75251 -18.9891 -8.91758 -5.60824 -3.78121 54.69096 4.10227 3.39253 -24.16455 -8.97208 5.19421 3.53316
-0.00039 -0.00028 0.0005 20.92517 -35.0547 -2.93602 57.49293 -0.20999 1.63095 -14.51215 -1.39495 -0.33498 169.87824 -82.29059 -22.29876 18.82707 92.64285 -1.11441 -5.19453 78.13182 91.85297 -8.54502 8.74288 -83.21673 -1.9579 -0.75172 49.69153 -3.63213 -7.7422 -18.99039 -8.92513 -5.61416 -3.78514 54.66163 4.19673 3.7337 -24.16787 -8.9397 5.16395 3.51366
-0.0004 -0.00033 0.00057 20.93583 -35.02681 -2.95409 57.50668 -0.21297 1.8285 -14.52116 -1.38467 -0.33459 169.92194 -82.36736 -22.10878 19.02789 92.67561 -0.96185 -5.2328 44.62142 95.81774 -26.09828 7.28993 -78.99256 -0.89764 -3.1153 49.67168 -3.61365 -7.74097 -18.99291 -8.92996 -5.61878 -3.78815 54.63357 4.2985 4.11537 -24.17147 -8.90232 5.13113 3.49223
-0.0004 -0.00036 0.00063 20.95338 -34.99578 -2.97844 57.53557 -0.20926 2.05526 -14.55861 -1.38772 -0.33456 169.7842 -82.48553 -21.91134 19.21192 92.66221 -0.81953 -5.27551 18.25209 98.86641 -38.07154 7.02168 -75.79802 -0.33776 -4.7488 49.6452 -3.59128 -7.73058 -18.99297 -8.93904 -5.62541 -3.79263 54.60261 4.38534 4.40934 -24.17465 -8.87605 5.10353 3.4748
-0.00034 -0.00037 0.00068 20.98676 -34.95628 -3.01742 57.60376 -0.18669 2.35708 -14.67335 -1.42645 -0.33545 170.00207 -82.59754 -21.09907 19.47407 92.66156 -0.65927 -5.29282 13.78672 99.17736 -33.47928 9.94284 -75.72019 -1.25589 -4.21354 49.60036 -3.55823 -7.68586 -18.98529 -8.96111 -5.6382 -3.80154 54.5633 4.42659 4.44857 -24.17624 -8.88194 5.0925 3.46972
-0.00027 -0.00036 0.00072 21.02767 -34.91368 -3.06288 57.68705 -0.15762 2.68599 -14.81646 -1.47885 -0.33674 169.90957 -82.76957 -20.35141 19.69611 92.58888 -0.52143 -5.3179 16.69023 98.53745 -23.21602 14.07485 -76.69828 -2.67339 -2.93687 49.54893 -3.52108 -7.63067 -18.97533 -8.98762 -5.65309 -3.812 54.52129 4.45347 4.40277 -24.17745 -8.89847 5.08638 3.4684
-0.00021 -0.00036 0.00077 21.06715 -34.87262 -3.10646 57.76407 -0.13201 3.00045 -14.94713 -1.52562 -0.33792 169.36333 -82.99465 -20.01943 19.84425 92.45614 -0.40968 -5.36729 15.91592 98.34183 -15.72784 17.71047 -77.15428 -3.82574 -2.02842 49.50083 -3.48513 -7.57914 -18.96707 -9.01223 -5.66709 -3.82183 54.48104 4.48981 4.40729 -24.17901 -8.90856 5.07661 3.46443
-0.00014 -0.00035 0.00081 21.09815 -34.83106 -3.14566 57.83906 -0.10408 3.32639 -15.0769 -1.56971 -0.3388 171.20372 -82.8933 -17.97513 20.36922 92.71236 -0.14222 -5.31269 16.21871 98.13291 -7.47962 21.11549 -77.75713 -5.13258 -1.0017 49.45143 -3.45179 -7.53222 -18.95602 -9.03632 -5.68083 -3.83135 54.43851 4.51414 4.36326 -24.17978 -8.92548 5.07276 3.46441
-8e-05 -0.00036 0.00086 21.14867 -34.78971 -3.19548 57.92148 -0.0796 3.63295 -15.21413 -1.62292 -0.34038 168.15473 -83.47063 -19.30302 20.11624 92.14491 -0.2064 -5.45971 16.19931 97.70311 0.51845 25.29137 -78.31726 -6.23964 -0.04154 49.40299 -3.41239 -7.47453 -18.95023 -9.06239 -5.69554 -3.84183 54.40007 4.55966 4.39871 -24.18217 -8.93075 5.05782 3.45712
-3e-05 -0.00039 0.0009 21.25005 -34.75055 -3.27329 58.02292 -0.06471 3.89131 -15.37366 -1.69512 -0.34389 150.34787 -86.04113 -31.7699 17.57739 89.3017 -1.16333 -6.31196 12.84147 96.99326 6.98015 31.2751 -78.49452 -6.66518 0.57316 49.36056 -3.35356 -7.37261 -18.95956 -9.09483 -5.71317 -3.85535 54.37373 4.67107 4.68935 -24.18855 -8.90024 5.01041 3.42821
1e-05 -0.00044 0.00094 21.37067 -34.71152 -3.36168 58.13074 -0.05361 4.12682 -15.5376 -1.77641 -0.34807 127.87931 -89.26897 -47.31402 14.28368 85.64451 -2.45288 -7.34357 9.05221 96.06995 12.91973 37.99505 -78.59582 -6.87613 1.09378 49.31902 -3.28921 -7.2626 -18.97426 -9.12873 -5.73154 -3.86963 54.35154 4.80388 5.06046 -24.19668 -8.85772 4.95174 3.39191
5e-05 -0.00049 0.00098 21.48373 -34.67189 -3.44477 58.2343 -0.04201 4.36476 -15.69441 -1.85557 -0.35186 108.41996 -92.10623 -60.20293 11.43287 82.36111 -3.60674 -8.18826 5.93212 95.17868 18.7496 44.39733 -78.74342 -7.18941 1.64686 49.27592 -3.23013 -7.16798 -18.98649 -9.1607 -5.74916 -3.88309 54.32744 4.92395 5.38473 -24.20437 -8.82146 4.89877 3.35945
9e-05 -0.00052 0.00102 21.59358 -34.63453 -3.52936 58.34461 -0.0258 4.63725 -15.87579 -1.92735 -0.35601 85.19263 -95.32742 -78.27753 8.1618 79.02227 -4.71182 -9.45834 1.10601 94.5361 26.20389 50.78069 -78.88654 -7.49388 2.26921 49.23741 -3.16025 -7.02595 -18.99875 -9.19828 -5.76877 -3.8987 54.30354 5.05495 5.74837 -24.21054 -8.78257 4.84377 3.32529
0.00013 -0.00059 0.00105 21.71269 -34.5924 -3.61425 58.44156 -0.01921 4.83201 -16.00424 -2.01575 -0.35956 68.70651 -97.91169 -86.43448 5.58399 75.6524 -5.97743 -9.90982 -0.41301 93.32825 30.12264 57.34965 -78.99605 -7.76658 2.71505 49.1897 -3.11033 -6.97788 -19.01226 -9.22434 -5.78417 -3.9099 54.27998 5.1701 6.0515 -24.2203 -8.74566 4.78993 3.29264
0.00013 -0.00075 0.00104 21.8689 -34.53798 -3.6883 58.50514 -0.04684 4.81683 -16.00636 -2.15425 -0.36125 72.00098 -98.5153 -65.12478 5.13467 71.99719 -7.75958 -7.83719 7.70315 90.6915 23.98988 64.35231 -79.12523 -7.93639 2.69557 49.11579 -3.1283 -7.21772 -19.02777 -9.21938 -5.78954 -3.90959 54.25862 5.22147 6.15601 -24.23962 -8.72187 4.74504 3.26815
0.00011 -0.00096 0.00101 22.03083 -34.47849 -3.7636 58.55387 -0.08269 4.72402 -15.95112 -2.30813 -0.36231 82.22622 -98.46859 -33.97251 5.40397 68.40915 -9.6527 -4.97159 19.05257 87.48382 14.36465 71.48878 -79.20129 -8.0899 2.49806 49.03265 -3.16469 -7.54797 -19.04441 -9.20256 -5.79031 -3.90468 54.23691 5.25847 6.19857 -24.26246 -8.69974 4.70131 3.24515
